<?xml version="1.0" encoding="UTF-8"?>
<!DOCTYPE svg PUBLIC "-//W3C//DTD SVG 1.1//EN" "http://www.w3.org/Graphics/SVG/1.1/DTD/svg11.dtd">
<!-- Creator: CorelDRAW X7 -->
<svg xmlns="http://www.w3.org/2000/svg" xml:space="preserve" width="3.33333in" height="3.33333in" version="1.1" style="shape-rendering:geometricPrecision; text-rendering:geometricPrecision; image-rendering:optimizeQuality; fill-rule:evenodd; clip-rule:evenodd"
viewBox="0 0 3333 3333"
 xmlns:xlink="http://www.w3.org/1999/xlink">
 <defs>
  <style type="text/css">
   <![CDATA[
    .fil1 {fill:none}
    .fil0 {fill:#000000}
   ]]>
  </style>
 </defs>
 <g id="Layer_x0020_1">
  <metadata id="CorelCorpID_0Corel-Layer"/>
  <g id="_2035039899760">
   <polygon class="fil0" points="2897,678 2896,712 2895,746 2890,813 2882,879 2871,943 2857,1008 2840,1070 2820,1132 2797,1191 2772,1249 2744,1306 2714,1362 2681,1415 2645,1467 2608,1517 2568,1565 2527,1610 2482,1654 2437,1696 2389,1734 2339,1772 2288,1805 2235,1837 2180,1866 2124,1893 2067,1917 2008,1937 1949,1955 1888,1969 1825,1981 1761,1989 1730,1993 1697,1995 1665,1996 1633,1997 1600,1996 1568,1995 1535,1993 1503,1989 1440,1981 1378,1969 1316,1955 1257,1937 1198,1917 1140,1893 1084,1866 1030,1837 977,1805 925,1772 876,1734 828,1696 782,1654 739,1610 697,1565 657,1517 619,1467 584,1415 551,1362 521,1306 493,1249 467,1191 445,1132 425,1070 408,1008 394,943 382,879 375,813 370,746 368,712 368,678 368,668 797,671 798,717 800,762 805,807 813,850 822,894 833,936 845,977 860,1018 876,1057 895,1096 914,1133 936,1169 959,1205 984,1239 1010,1271 1037,1302 1066,1332 1096,1360 1127,1387 1160,1412 1194,1435 1229,1457 1265,1477 1301,1495 1339,1511 1378,1526 1417,1538 1458,1548 1499,1556 1540,1562 1583,1566 1626,1568 1669,1567 1712,1564 1753,1559 1794,1550 1835,1541 1875,1530 1914,1516 1952,1500 1989,1483 2025,1464 2060,1442 2095,1419 2128,1395 2159,1369 2189,1341 2219,1312 2246,1281 2273,1249 2298,1216 2321,1181 2344,1145 2364,1108 2382,1070 2400,1031 2415,990 2429,949 2440,907 2450,864 2457,821 2463,776 2466,731 2468,685 2468,678 "/>
   <polyline class="fil1" points="2897,678 2896,712 2895,746 2890,813 2882,879 2871,943 2857,1008 2840,1070 2820,1132 2797,1191 2772,1249 2744,1306 2714,1362 2681,1415 2645,1467 2608,1517 2568,1565 2527,1610 2482,1654 2437,1696 2389,1734 2339,1772 2288,1805 2235,1837 2180,1866 2124,1893 2067,1917 2008,1937 1949,1955 1888,1969 1825,1981 1761,1989 1730,1993 1697,1995 1665,1996 1633,1997 1600,1996 1568,1995 1535,1993 1503,1989 1440,1981 1378,1969 1316,1955 1257,1937 1198,1917 1140,1893 1084,1866 1030,1837 977,1805 925,1772 876,1734 828,1696 782,1654 739,1610 697,1565 657,1517 619,1467 584,1415 551,1362 521,1306 493,1249 467,1191 445,1132 425,1070 408,1008 394,943 382,879 375,813 370,746 368,712 368,678 368,668 797,671 798,717 800,762 805,807 813,850 822,894 833,936 845,977 860,1018 876,1057 895,1096 914,1133 936,1169 959,1205 984,1239 1010,1271 1037,1302 1066,1332 1096,1360 1127,1387 1160,1412 1194,1435 1229,1457 1265,1477 1301,1495 1339,1511 1378,1526 1417,1538 1458,1548 1499,1556 1540,1562 1583,1566 1626,1568 1669,1567 1712,1564 1753,1559 1794,1550 1835,1541 1875,1530 1914,1516 1952,1500 1989,1483 2025,1464 2060,1442 2095,1419 2128,1395 2159,1369 2189,1341 2219,1312 2246,1281 2273,1249 2298,1216 2321,1181 2344,1145 2364,1108 2382,1070 2400,1031 2415,990 2429,949 2440,907 2450,864 2457,821 2463,776 2466,731 2468,685 2468,678 2897,678 "/>
  </g>
  <circle class="fil0" cx="1633" cy="2653" r="303"/>
 </g>
</svg>
